<?xml version="1.0" standalone="no"?>
<!DOCTYPE svg PUBLIC "-//W3C//DTD SVG 20010904//EN"
 "http://www.w3.org/TR/2001/REC-SVG-20010904/DTD/svg10.dtd">
<svg version="1.0" xmlns="http://www.w3.org/2000/svg"
 width="50.000000pt" height="50.000000pt" viewBox="0 0 50.000000 50.000000"
 preserveAspectRatio="xMidYMid meet">

<g transform="translate(0.000000,50.000000) scale(0.100000,-0.100000)"
fill="#fd602b" stroke="#fd602b">
<path d="M155 456 c-51 -24 -103 -71 -92 -82 4 -4 24 9 46 29 64 57 151 72
226 38 128 -58 164 -223 72 -328 -79 -90 -208 -97 -298 -16 -44 40 -66 37 -28
-3 35 -39 116 -74 169 -74 52 0 134 35 167 71 34 37 63 110 63 159 0 52 -35
134 -71 167 -37 34 -110 63 -159 63 -27 0 -65 -10 -95 -24z" fill="#fd602b"/>
<path d="M60 295 l-44 -45 46 -47 c26 -26 51 -44 54 -40 4 4 -8 23 -26 42
l-34 35 112 0 c68 0 112 4 112 10 0 6 -44 10 -112 10 l-112 0 32 33 c18 18 32
36 32 40 0 16 -18 4 -60 -38z" fill="#fd602b"/>
</g>
</svg>
