<?xml version="1.0" standalone="no"?>
<!DOCTYPE svg PUBLIC "-//W3C//DTD SVG 20010904//EN"
 "http://www.w3.org/TR/2001/REC-SVG-20010904/DTD/svg10.dtd">
<svg version="1.0" xmlns="http://www.w3.org/2000/svg"
 width="50.000000pt" height="50.000000pt" viewBox="0 0 50.000000 50.000000"
 preserveAspectRatio="xMidYMid meet">

<g transform="translate(0.000000,50.000000) scale(0.100000,-0.100000)"
fill="#000000" stroke="none">
<path d="M203 450 c-36 -15 -55 -56 -64 -138 -5 -42 -10 -86 -11 -97 -2 -14 6
-22 30 -30 38 -13 34 -19 -35 -54 -42 -21 -63 -46 -63 -75 0 -14 24 -16 190
-16 166 0 190 2 190 16 0 29 -21 54 -63 75 -69 35 -73 41 -35 53 l33 11 -4 85
c-3 93 -20 147 -48 156 -10 3 -26 10 -35 15 -22 11 -56 11 -85 -1z m91 -25
c45 -19 54 -41 57 -141 l2 -79 -29 -5 c-48 -9 -38 -40 23 -73 29 -16 58 -37
63 -48 10 -18 6 -19 -160 -19 -166 0 -170 1 -160 19 5 11 34 32 63 48 61 33
72 66 24 71 l-28 3 6 67 c10 114 15 130 42 152 31 24 49 25 97 5z"/>
</g>
</svg>
